<svg width="132" height="132" viewBox="0 0 132 132" fill="none" xmlns="http://www.w3.org/2000/svg">
<path d="M37.2224 68.5514C33.1634 69.7394 34.3843 72.2474 32.8333 71.4554C30.8533 70.4324 27.6193 71.3564 26.7283 73.2704C25.2763 76.3394 28.8073 82.3455 34.1533 85.6125C34.9123 86.0745 36.1002 86.8335 36.7602 87.2625C40.2912 89.5395 42.7333 84.8204 42.8983 75.2504C42.9973 69.9044 40.9514 67.4294 37.2224 68.5514ZM38.0802 83.6325L37.6513 85.0843C32.4043 79.8043 29.5004 77.1314 29.4674 74.4914C29.4344 72.3464 30.1933 72.4454 32.1733 74.9204C33.3283 76.3724 34.0213 76.9335 34.6813 77.0325C37.6183 77.4285 35.7372 74.0625 37.2552 71.2575C37.7172 70.3665 38.2782 70.6634 39.0702 72.1814C39.8292 73.7654 39.3672 79.3095 38.0802 83.6325Z" fill="white"/>
<path d="M97.2819 50.8963C95.7969 51.2923 95.4668 51.2592 94.8398 50.8302C94.0478 50.3022 91.9029 50.2363 90.6489 50.7313C86.9199 52.2163 85.5669 60.0042 87.8439 66.7692C89.5599 71.8842 91.6719 71.2902 97.2819 64.1952C104.278 55.3182 104.278 49.0483 97.2819 50.8963ZM99.0309 56.1431C97.6119 59.5091 91.9689 65.7792 91.5729 64.3602C91.0779 62.4462 90.9129 57.4303 91.2759 55.3513C92.0019 51.4573 93.5859 50.5333 93.5859 54.0313C93.5859 55.8133 94.9389 56.3742 96.0609 55.0542C96.3249 54.7242 97.0179 53.8992 97.5789 53.2392C99.3279 51.1602 100.285 53.1401 99.0309 56.1431Z" fill="white"/>
<path d="M67.2188 47.0352C66.3608 47.4972 65.8987 47.5634 65.4697 47.3324C61.3447 45.1544 57.6488 49.2792 59.2988 54.1302C63.4898 66.2742 66.7898 66.2411 72.9938 53.9981C75.6668 48.6851 72.1028 44.3952 67.2188 47.0352ZM71.0797 50.6652C70.7827 51.8202 69.4957 53.4372 68.1427 55.4502C65.7337 59.1462 66.0968 59.0472 64.9088 56.3742C63.8198 53.9652 62.1697 52.6123 61.8727 51.5563C61.4767 50.0713 62.1367 46.9364 64.6777 49.8074C65.9647 51.2594 67.2848 51.3583 67.7138 49.9063C68.8358 46.2763 71.5417 48.9162 71.0797 50.6652Z" fill="white"/>
<path d="M89.6918 40.7323C101.374 30.2053 104.707 20.4041 96.3577 21.0641L94.2788 21.2291L93.4538 19.9752C91.9688 17.7642 89.4277 16.9391 86.7877 17.8631C82.2007 19.4801 80.5177 24.1992 81.3757 33.0102C82.4977 44.2962 84.1148 45.7483 89.6918 40.7323ZM84.7747 27.2352C85.0057 20.8332 87.4477 17.4341 90.1207 19.7441C91.5397 20.9651 92.0348 22.9452 91.1438 23.7702C87.5798 27.1032 86.6887 31.5252 89.5927 31.5252C91.9687 31.5252 94.2458 28.5553 94.7738 24.8263C95.2028 21.5263 97.8757 21.6251 97.8757 24.9581C97.8757 26.6741 97.0507 28.0932 93.7177 32.1852C91.6717 34.6932 85.9627 40.5673 85.7647 40.3363C85.4017 39.9403 84.6757 30.6012 84.7747 27.2352Z" fill="white"/>
<path d="M100.318 82.5104C99.3278 82.7084 99.2288 82.6423 99.2288 81.9493C99.2288 80.0683 96.3247 78.9465 93.8497 79.8375C88.6027 81.7515 84.1807 90.7605 85.2697 97.3275C85.9957 101.783 105.499 90.9583 105.499 86.0743C105.499 83.6653 103.09 81.9494 100.318 82.5104ZM88.4047 95.7433C88.1407 95.4793 90.7808 87.1633 91.8038 85.0843C93.4868 81.6193 95.5658 80.3654 95.5658 82.8404C95.5658 83.2364 95.0707 84.2264 94.5097 84.9854C92.3977 87.7244 92.4968 87.6583 92.8928 88.0543C93.6518 88.8133 96.2259 87.7574 97.9419 85.9754C99.9219 83.9294 102.199 83.9293 102.199 86.0083C102.199 87.4603 89.2627 96.6013 88.4047 95.7433Z" fill="white"/>
<path d="M61.0149 83.7313C62.3679 83.2033 65.701 74.2933 65.734 71.1913C65.734 67.3633 62.4009 65.4821 58.9029 67.3631C58.4079 67.6271 57.979 67.9903 57.979 68.1223C57.979 68.2873 56.9889 68.3861 55.8009 68.3531C51.7749 68.2871 50.9169 70.3661 52.8309 75.6131C54.9429 81.4211 58.2759 84.7543 61.0149 83.7313ZM56.6259 71.2902C57.8139 73.2702 59.959 72.8743 59.959 70.6963C59.959 68.9803 61.444 67.9242 61.807 69.4092C62.17 70.8942 59.794 79.0452 59.002 79.0452C58.441 79.0452 55.8999 73.4351 55.7349 71.8181C55.5369 69.8381 55.7019 69.7392 56.6259 71.2902Z" fill="white"/>
<path d="M62.7643 99.3077C62.2363 99.5387 61.5762 100 61.3452 100.264C61.0152 100.693 60.5532 100.759 59.2662 100.594C53.2932 99.8685 52.2042 106.007 57.4182 111.221C62.1372 115.94 64.6783 115.478 66.5593 109.571C69.1003 101.618 67.4833 97.1957 62.7643 99.3077ZM62.2362 110.758C59.4972 107.095 56.6923 103.663 57.1873 102.343C57.5833 101.353 58.8703 102.31 59.6293 104.158C60.4543 106.105 63.0942 105.874 62.8302 103.894C62.4342 100.858 64.2823 99.2746 64.7773 102.212C65.1403 104.39 62.4342 110.197 62.2362 110.758Z" fill="white"/>
<path d="M50.224 30.6674C48.277 31.7564 48.31 31.7563 47.782 30.3703C47.056 28.3573 44.515 27.6974 41.974 28.8524C37.255 31.0304 37.6839 39.1154 43.0299 47.1014C44.0529 48.6194 44.1519 52.9422 49.4649 47.5632C52.3689 44.6262 56.791 39.7423 58.012 37.9603C62.038 32.0533 56.692 27.0374 50.224 30.6674ZM56.527 33.8353C56.23 36.1123 48.0789 45.8802 45.8349 46.6392C45.2409 46.8372 42.6669 38.5873 42.2709 35.3203C41.7429 30.7003 44.053 27.8294 45.307 31.5914C45.604 32.5154 45.8349 33.8354 45.8349 34.5614C45.8019 36.9704 48.112 37.0692 49.234 34.6932C51.379 30.1062 57.088 29.4793 56.527 33.8353Z" fill="white"/>
</svg>
